<?xml version="1.0" encoding="UTF-8" standalone="no"?>
<!-- Created with Inkscape (http://www.inkscape.org/) -->

<svg
   xmlns:dc="http://purl.org/dc/elements/1.1/"
   xmlns:cc="http://creativecommons.org/ns#"
   xmlns:rdf="http://www.w3.org/1999/02/22-rdf-syntax-ns#"
   xmlns:svg="http://www.w3.org/2000/svg"
   xmlns="http://www.w3.org/2000/svg"
   xmlns:sodipodi="http://sodipodi.sourceforge.net/DTD/sodipodi-0.dtd"
   xmlns:inkscape="http://www.inkscape.org/namespaces/inkscape"
   width="744.09448819"
   height="1052.3622047"
   id="svg2"
   version="1.1"
   inkscape:version="0.48.2 r9819"
   sodipodi:docname="loop.pdf">
  <defs
     id="defs4">
    <marker
       inkscape:stockid="Arrow1Mstart"
       orient="auto"
       refY="0.0"
       refX="0.0"
       id="Arrow1Mstart"
       style="overflow:visible">
      <path
         id="path3875"
         d="M 0.0,0.0 L 5.0,-5.0 L -12.5,0.0 L 5.0,5.0 L 0.0,0.0 z "
         style="fill-rule:evenodd;stroke:#000000;stroke-width:1.0pt;marker-start:none"
         transform="scale(0.4) translate(10,0)" />
    </marker>
    <marker
       inkscape:stockid="Arrow2Lend"
       orient="auto"
       refY="0.0"
       refX="0.0"
       id="Arrow2Lend"
       style="overflow:visible;">
      <path
         id="path3890"
         style="font-size:12.0;fill-rule:evenodd;stroke-width:0.62500000;stroke-linejoin:round;"
         d="M 8.7185878,4.0337352 L -2.2072895,0.016013256 L 8.7185884,-4.0017078 C 6.9730900,-1.6296469 6.9831476,1.6157441 8.7185878,4.0337352 z "
         transform="scale(1.1) rotate(180) translate(1,0)" />
    </marker>
    <marker
       inkscape:stockid="Arrow2Mend"
       orient="auto"
       refY="0.0"
       refX="0.0"
       id="Arrow2Mend"
       style="overflow:visible;">
      <path
         id="path3896"
         style="font-size:12.0;fill-rule:evenodd;stroke-width:0.62500000;stroke-linejoin:round;"
         d="M 8.7185878,4.0337352 L -2.2072895,0.016013256 L 8.7185884,-4.0017078 C 6.9730900,-1.6296469 6.9831476,1.6157441 8.7185878,4.0337352 z "
         transform="scale(0.6) rotate(180) translate(0,0)" />
    </marker>
    <marker
       inkscape:stockid="Arrow1Lend"
       orient="auto"
       refY="0.0"
       refX="0.0"
       id="Arrow1Lend"
       style="overflow:visible;">
      <path
         id="path3872"
         d="M 0.0,0.0 L 5.0,-5.0 L -12.5,0.0 L 5.0,5.0 L 0.0,0.0 z "
         style="fill-rule:evenodd;stroke:#000000;stroke-width:1.0pt;marker-start:none;"
         transform="scale(0.8) rotate(180) translate(12.5,0)" />
    </marker>
    <marker
       inkscape:stockid="Arrow1Lstart"
       orient="auto"
       refY="0.0"
       refX="0.0"
       id="Arrow1Lstart"
       style="overflow:visible">
      <path
         id="path3869"
         d="M 0.0,0.0 L 5.0,-5.0 L -12.5,0.0 L 5.0,5.0 L 0.0,0.0 z "
         style="fill-rule:evenodd;stroke:#000000;stroke-width:1.0pt;marker-start:none"
         transform="scale(0.8) translate(12.5,0)" />
    </marker>
  </defs>
  <sodipodi:namedview
     id="base"
     pagecolor="#ffffff"
     bordercolor="#666666"
     borderopacity="1.0"
     inkscape:pageopacity="0.0"
     inkscape:pageshadow="2"
     inkscape:zoom="3.5294429"
     inkscape:cx="219.19286"
     inkscape:cy="907.3215"
     inkscape:document-units="px"
     inkscape:current-layer="layer1"
     showgrid="false"
     inkscape:window-width="1652"
     inkscape:window-height="909"
     inkscape:window-x="165"
     inkscape:window-y="40"
     inkscape:window-maximized="0" />
  <metadata
     id="metadata7">
    <rdf:RDF>
      <cc:Work
         rdf:about="">
        <dc:format>image/svg+xml</dc:format>
        <dc:type
           rdf:resource="http://purl.org/dc/dcmitype/StillImage" />
        <dc:title></dc:title>
      </cc:Work>
    </rdf:RDF>
  </metadata>
  <g
     inkscape:label="Layer 1"
     inkscape:groupmode="layer"
     id="layer1">
    <path
       id="path3020"
       style="fill:none;stroke:#000000;stroke-width:0.49813253;stroke-linecap:butt;stroke-linejoin:miter;stroke-miterlimit:10;stroke-opacity:1;stroke-dasharray:none"
       d="m 141.03978,201.67154 63.74782,-36.2011"
       inkscape:connector-curvature="0" />
    <path
       id="path3022"
       style="fill:#000000;fill-opacity:1;fill-rule:nonzero;stroke:none"
       d="m 198.1481,170.91642 1.27072,0.95322 5.36879,-6.3992 -10.45814,2.5865 2.54662,1.9061"
       inkscape:connector-curvature="0" />
    <path
       id="path3024"
       style="fill:none;stroke:#000000;stroke-width:0.49813253;stroke-linecap:butt;stroke-linejoin:miter;stroke-miterlimit:10;stroke-opacity:1;stroke-dasharray:none"
       d="m 198.1481,170.91643 1.27072,0.95321 5.36878,-6.3992 -10.45813,2.5865 2.54662,1.9061 1.27201,0.95339 z"
       inkscape:connector-curvature="0" />
    <path
       id="path3026"
       style="fill:none;stroke:#000000;stroke-width:0.49813253;stroke-linecap:butt;stroke-linejoin:miter;stroke-miterlimit:10;stroke-opacity:1;stroke-dasharray:none"
       d="m 141.03978,201.67154 0,-136.580814"
       inkscape:connector-curvature="0" />
    <path
       id="path3028"
       style="fill:#000000;fill-opacity:1;fill-rule:nonzero;stroke:none"
       d="m 143.61907,71.410996 1.93796,0 -3.87618,-13.03147 -3.87617,13.03147 3.87617,0"
       inkscape:connector-curvature="0" />
    <path
       id="path3034"
       style="fill:#ececec;fill-opacity:1;fill-rule:nonzero;stroke:none"
       d="m 146.78297,132.13083 0.40698,-57.411024 51.02874,0 -4.9548,90.564394 -46.8879,24.25765"
       inkscape:connector-curvature="0" />
    <path
       style="fill:none;stroke:#000000;stroke-width:1.29799998;stroke-linecap:butt;stroke-linejoin:miter;stroke-miterlimit:10.89999962;stroke-opacity:1;stroke-dasharray:none"
       d="m 250.63576,173.37473 -2.87583,-6.73746 -4.18699,-6.57628 -5.4507,-6.29147 -6.65791,-5.88065 -7.77567,-5.33876 -8.76799,-4.67087 -9.61151,-3.87612 -10.24764,-2.98227 -10.65332,-2.0184 -10.8226,-1.02002"
       id="path3850"
       inkscape:connector-curvature="0"
       sodipodi:nodetypes="ccccccccccc" />
    <path
       style="fill:none;stroke:#000000;stroke-width:0.698;stroke-linecap:butt;stroke-linejoin:miter;stroke-miterlimit:10.89999962;stroke-opacity:1;stroke-dasharray:2.094,0.698;stroke-dashoffset:0"
       d="m 173.5856,127.98243 -10.74457,-0.0239 -10.45813,0.94019 -5.80772,1.21573"
       id="path3848"
       inkscape:connector-curvature="0" />
    <path
       style="fill:none;stroke:#000000;stroke-width:0.698;stroke-linecap:butt;stroke-linejoin:miter;stroke-miterlimit:10.89999962;stroke-opacity:1;stroke-dasharray:none"
       d="m 146.57518,130.11449 c -6.97828,1.77492 -14.1045,3.09702 -20.62613,6.26972 -9.56301,4.37651 -18.52624,10.65614 -24.60518,19.36734 -5.013924,7.11875 -7.653323,15.99157 -6.742819,24.70718 1.075101,11.21627 7.313169,21.38853 15.371799,29.03778 11.5146,11.1733 26.50555,18.1883 41.88743,22.27097 17.69215,4.56561 36.43304,5.16777 54.31777,1.32364 10.82581,-2.5674 21.41795,-6.75816 30.25599,-13.63559 5.7474,-4.56251 10.60853,-10.32515 13.49759,-17.11971 2.36411,-5.99758 3.15496,-12.6674 1.76398,-19.0055 -1.12478,-5.99236 -4.01077,-11.58767 -7.64409,-16.44535 -6.43449,-8.45414 -15.22672,-14.78857 -24.61117,-19.61554 -14.74832,-7.46764 -31.13539,-11.38867 -47.61177,-12.24629"
       id="path3076"
       inkscape:connector-curvature="0" />
    <path
       style="fill:none;stroke:#000000;stroke-width:0.698;stroke-linecap:butt;stroke-linejoin:miter;stroke-miterlimit:10;stroke-opacity:1;stroke-dasharray:2.792,1.396;stroke-dashoffset:6.97999954"
       d="m 171.82858,135.02313 -9.41294,0.0132 -9.13271,0.7988 -6.79073,0.92161"
       id="path3074"
       inkscape:connector-curvature="0" />
    <path
       style="fill:none;stroke:#000000;stroke-width:0.698;stroke-linecap:butt;stroke-linejoin:miter;stroke-miterlimit:10;stroke-opacity:1;stroke-dasharray:none;marker-start:none;marker-mid:none;marker-end:none"
       d="m 146.4922,136.75672 -10.07801,2.92999 -7.48094,2.96383 -8.62467,4.53882"
       id="path6336"
       inkscape:connector-curvature="0"
       sodipodi:nodetypes="cccc" />
    <path
       style="fill:none;stroke:#000000;stroke-width:0.698;stroke-linecap:butt;stroke-linejoin:miter;stroke-miterlimit:10;stroke-opacity:1;stroke-dasharray:none;marker-start:url(#Arrow1Lstart);marker-mid:none;marker-end:none"
       d="m 119.34697,147.83073 c -6.8719,5.56882 -13.4556,12.25342 -15.87627,21.00659 -3.08277,9.54393 -0.71694,20.19345 4.71313,28.44221 7.58211,11.76267 19.71787,19.90566 32.46443,25.22126 18.18201,7.60156 38.45886,9.99864 57.95501,7.32538 13.68484,-2.00248 27.36586,-6.6072 38.21295,-15.39646 6.53821,-5.20587 11.75661,-12.18892 14.18774,-20.23583 1.69332,-6.142 1.88183,-12.79202 -0.10779,-18.89777 -1.65259,-9.82942 -8.51279,-17.63171 -15.73367,-24.05285 -8.09245,-7.40502 -17.92509,-12.67679 -28.15342,-16.5082 -10.33242,-3.78765 -21.23353,-5.89508 -32.208,-6.62484 -0.40144,-0.0382 -0.80289,-0.0764 -1.20433,-0.11464"
       id="path3072" />
    <path
       style="fill:none;stroke:#000000;stroke-width:0.49813253;stroke-linecap:butt;stroke-linejoin:miter;stroke-miterlimit:10;stroke-opacity:1;stroke-dasharray:none"
       d="m 146.26711,130.11245 -13.15906,3.34622 -8.51784,3.48036 -7.60459,4.16939 -6.58994,4.77014 -5.5136,5.27669 -4.37945,5.68953"
       id="path3032"
       inkscape:connector-curvature="0" />
    <path
       sodipodi:type="arc"
       style="opacity:0.51293137;fill:#000000;fill-opacity:1;stroke:#450000;stroke-width:2.87806726;stroke-linecap:round;stroke-linejoin:round;stroke-miterlimit:10.89999962;stroke-opacity:1;stroke-dasharray:17.26840324, 17.26840324;stroke-dashoffset:0"
       id="path3852"
       sodipodi:cx="157.6804"
       sodipodi:cy="202.87677"
       sodipodi:rx="4.2616324"
       sodipodi:ry="3.5513604"
       d="m 161.94204,202.87677 a 4.2616324,3.5513604 0 1 1 -8.52327,0 4.2616324,3.5513604 0 1 1 8.52327,0 z"
       transform="matrix(0.4508915,0,0,0.45110274,98.504693,36.333934)" />
    <path
       transform="matrix(0.4508915,0,0,0.45110274,99.145203,43.062456)"
       d="m 161.94204,202.87677 a 4.2616324,3.5513604 0 1 1 -8.52327,0 4.2616324,3.5513604 0 1 1 8.52327,0 z"
       sodipodi:ry="3.5513604"
       sodipodi:rx="4.2616324"
       sodipodi:cy="202.87677"
       sodipodi:cx="157.6804"
       id="path3854"
       style="opacity:0.51293137;fill:#000000;fill-opacity:1;stroke:#450000;stroke-width:2.87806726;stroke-linecap:round;stroke-linejoin:round;stroke-miterlimit:10.89999962;stroke-opacity:1;stroke-dasharray:17.26840324, 17.26840324;stroke-dashoffset:0"
       sodipodi:type="arc" />
    <text
       xml:space="preserve"
       style="font-size:6.3139596px;font-style:normal;font-weight:normal;text-align:center;line-height:125%;letter-spacing:0px;word-spacing:0px;text-anchor:middle;fill:#000000;fill-opacity:1;stroke:none;font-family:Bitstream Vera Sans"
       x="213.90599"
       y="166.2587"
       id="text3856"
       sodipodi:linespacing="125%"
       transform="scale(0.99976585,1.0002342)"><tspan
         sodipodi:role="line"
         id="tspan3858"
         x="213.90599"
         y="166.2587">$x$</tspan></text>
    <text
       xml:space="preserve"
       style="font-size:6.3139596px;font-style:normal;font-weight:normal;text-align:center;line-height:125%;letter-spacing:0px;word-spacing:0px;text-anchor:middle;fill:#000000;fill-opacity:1;stroke:none;font-family:Bitstream Vera Sans"
       x="132.91742"
       y="58.592682"
       id="text3860"
       sodipodi:linespacing="125%"
       transform="scale(0.99976585,1.0002342)"><tspan
         sodipodi:role="line"
         id="tspan3862"
         x="132.91742"
         y="58.592682">$y$</tspan></text>
    <path
       sodipodi:type="arc"
       style="opacity:0.51293137000000000;fill:none;stroke:#000000;stroke-width:3.50263858;stroke-linecap:round;stroke-linejoin:round;stroke-miterlimit:10;stroke-opacity:1;stroke-dasharray:none;stroke-dashoffset:0;marker-start:url(#Arrow1Mstart);marker-end:none"
       id="path6708"
       sodipodi:cx="191.23024"
       sodipodi:cy="179.38545"
       sodipodi:rx="39.099121"
       sodipodi:ry="39.099121"
       d="M 229.35991,170.73274 A 39.099121,39.099121 0 1 1 191.23023,140.28633"
       sodipodi:start="6.0600361"
       sodipodi:end="10.995574"
       sodipodi:open="true"
       transform="matrix(-0.22782633,0,0,0.22783016,188.06005,159.08819)" />
    <text
       xml:space="preserve"
       style="font-size:6.3139596px;font-style:normal;font-weight:normal;text-align:center;line-height:125%;letter-spacing:0px;word-spacing:0px;text-anchor:middle;fill:#000000;fill-opacity:1;stroke:none;font-family:Bitstream Vera Sans"
       x="157.08058"
       y="215.38399"
       id="text10076"
       sodipodi:linespacing="125%"
       transform="scale(0.99976585,1.0002342)"><tspan
         sodipodi:role="line"
         id="tspan10078"
         x="157.08058"
         y="215.38399">$\omega t$</tspan></text>
  </g>
</svg>
