<?xml version="1.0" encoding="UTF-8" standalone="no"?>
<!-- Created with Inkscape (http://www.inkscape.org/) -->

<svg
   xmlns:dc="http://purl.org/dc/elements/1.1/"
   xmlns:cc="http://creativecommons.org/ns#"
   xmlns:rdf="http://www.w3.org/1999/02/22-rdf-syntax-ns#"
   xmlns:svg="http://www.w3.org/2000/svg"
   xmlns="http://www.w3.org/2000/svg"
   xmlns:sodipodi="http://sodipodi.sourceforge.net/DTD/sodipodi-0.dtd"
   xmlns:inkscape="http://www.inkscape.org/namespaces/inkscape"
   width="744.09448819"
   height="1052.3622047"
   id="svg2"
   version="1.1"
   inkscape:version="0.48.2 r9819"
   sodipodi:docname="pullback.pdf">
  <defs
     id="defs4">
    <marker
       inkscape:stockid="Arrow1Lstart"
       orient="auto"
       refY="0.0"
       refX="0.0"
       id="Arrow1Lstart"
       style="overflow:visible">
      <path
         id="path5049"
         d="M 0.0,0.0 L 5.0,-5.0 L -12.5,0.0 L 5.0,5.0 L 0.0,0.0 z "
         style="fill-rule:evenodd;stroke:#000000;stroke-width:1.0pt;marker-start:none"
         transform="scale(0.8) translate(12.5,0)" />
    </marker>
    <marker
       inkscape:stockid="Arrow1Lend"
       orient="auto"
       refY="0.0"
       refX="0.0"
       id="Arrow1Lend"
       style="overflow:visible;">
      <path
         id="path4708"
         d="M 0.0,0.0 L 5.0,-5.0 L -12.5,0.0 L 5.0,5.0 L 0.0,0.0 z "
         style="fill-rule:evenodd;stroke:#000000;stroke-width:1.0pt;marker-start:none;"
         transform="scale(0.8) rotate(180) translate(12.5,0)" />
    </marker>
  </defs>
  <sodipodi:namedview
     id="base"
     pagecolor="#ffffff"
     bordercolor="#666666"
     borderopacity="1.0"
     inkscape:pageopacity="0.0"
     inkscape:pageshadow="2"
     inkscape:zoom="3.4039305"
     inkscape:cx="241.82801"
     inkscape:cy="512.93526"
     inkscape:document-units="px"
     inkscape:current-layer="layer1"
     showgrid="false"
     inkscape:window-width="1839"
     inkscape:window-height="1116"
     inkscape:window-x="58"
     inkscape:window-y="0"
     inkscape:window-maximized="0"
     inkscape:object-paths="true"
     inkscape:object-nodes="true" />
  <metadata
     id="metadata7">
    <rdf:RDF>
      <cc:Work
         rdf:about="">
        <dc:format>image/svg+xml</dc:format>
        <dc:type
           rdf:resource="http://purl.org/dc/dcmitype/StillImage" />
        <dc:title></dc:title>
      </cc:Work>
    </rdf:RDF>
  </metadata>
  <g
     inkscape:label="Layer 1"
     inkscape:groupmode="layer"
     id="layer1">
    <path
       id="path3276"
       style="fill:#c8b7b7;fill-opacity:1;fill-rule:nonzero;stroke:none"
       d="m 337.23442,517.66649 1.4225,-47.881 63.58625,0 -3.7875,103.71937 -62.645,-7.95812"
       inkscape:connector-curvature="0" />
    <path
       id="path3016"
       style="fill:none;stroke:#000000;stroke-width:0.4981325;stroke-linecap:butt;stroke-linejoin:miter;stroke-miterlimit:10;stroke-opacity:1;stroke-dasharray:none"
       d="m 131.81145,586.03625 51.26613,12.94047"
       inkscape:connector-curvature="0" />
    <path
       id="path3018"
       style="fill:#000000;fill-opacity:1;fill-rule:nonzero;stroke:none"
       d="m 177.6317,598.56607 -0.2285,0.90479 5.67438,-0.49414 -4.75975,-3.12842 -0.45701,1.8125"
       inkscape:connector-curvature="0" />
    <path
       id="path3020"
       style="fill:none;stroke:#000000;stroke-width:0.4981325;stroke-linecap:butt;stroke-linejoin:miter;stroke-miterlimit:10;stroke-opacity:1;stroke-dasharray:none"
       d="m 177.6317,598.56607 -0.2285,0.90479 5.67438,-0.49414 -4.75975,-3.12842 -0.45701,1.8125 -0.22912,0.90527 z"
       inkscape:connector-curvature="0" />
    <path
       id="path3022"
       style="fill:none;stroke:#000000;stroke-width:0.4981325;stroke-linecap:butt;stroke-linejoin:miter;stroke-miterlimit:10;stroke-opacity:1;stroke-dasharray:none"
       d="m 131.81145,586.03625 0,-120.78275"
       inkscape:connector-curvature="0" />
    <path
       id="path3024"
       style="fill:#000000;fill-opacity:1;fill-rule:nonzero;stroke:none"
       d="m 132.74602,475.46162 0.93457,0 -1.86914,-10.20812 -1.86914,10.20812 1.86914,0"
       inkscape:connector-curvature="0" />
    <path
       id="path3026"
       style="fill:none;stroke:#000000;stroke-width:0.4981325;stroke-linecap:butt;stroke-linejoin:miter;stroke-miterlimit:10;stroke-opacity:1;stroke-dasharray:none"
       d="m 132.74602,475.46162 0.93457,0 -1.86914,-10.20812 -1.86914,10.20812 1.86914,0 0.93457,0 z"
       inkscape:connector-curvature="0" />
    <path
       id="path3028"
       style="fill:none;stroke:#000000;stroke-width:0.4981325;stroke-linecap:butt;stroke-linejoin:miter;stroke-miterlimit:10;stroke-opacity:1;stroke-dasharray:none;marker-mid:none;marker-end:url(#Arrow1Lend)"
       d="M 132.34466,586.03625 418.44514,556.77981"
       inkscape:connector-curvature="0"
       sodipodi:nodetypes="cc" />
    <path
       id="path3282"
       style="fill:none;stroke:none"
       d="m 131.81145,525.64512 0,-60.39162 52.00925,0 -0.74312,133.72322 -51.26613,-12.94047 0,-60.39113 z"
       inkscape:connector-curvature="0" />
    <path
       sodipodi:type="arc"
       style="opacity:0.52155175;fill:#ff0000;fill-opacity:0.21875;stroke:#450000;stroke-width:0.2;stroke-linecap:round;stroke-linejoin:round;stroke-miterlimit:4;stroke-opacity:1;stroke-dasharray:none;stroke-dashoffset:0"
       id="path4497"
       sodipodi:cx="359.59036"
       sodipodi:cy="513.63824"
       sodipodi:rx="2.3156693"
       sodipodi:ry="2.1502645"
       d="m 359.79447,515.78014 a 2.3156693,2.1502645 0 1 1 0.0707,-0.007"
       sodipodi:start="1.4825403"
       sodipodi:end="7.7350202"
       sodipodi:open="true"
       transform="translate(2.0882258,-8.7142146)" />
    <path
       transform="translate(12.230176,19.033526)"
       sodipodi:open="true"
       sodipodi:end="7.7350202"
       sodipodi:start="1.4825403"
       d="m 359.79447,515.78014 a 2.3156693,2.1502645 0 1 1 0.0707,-0.007"
       sodipodi:ry="2.1502645"
       sodipodi:rx="2.3156693"
       sodipodi:cy="513.63824"
       sodipodi:cx="359.59036"
       id="path4499"
       style="opacity:0.52155174999999998;fill:#0000ff;fill-opacity:0.21875000000000000;stroke:#450000;stroke-width:0.20000000000000001;stroke-linecap:round;stroke-linejoin:round;stroke-miterlimit:4;stroke-opacity:1;stroke-dasharray:none;stroke-dashoffset:0"
       sodipodi:type="arc" />
    <path
       style="fill:#e6e6e6;stroke:#000000;stroke-width:0.10000000000000001;stroke-linecap:butt;stroke-linejoin:miter;stroke-miterlimit:4;stroke-opacity:1;stroke-dasharray:none"
       d="M 270.46461 512.16891 C 282.46345 526.21019 293.89273 540.28057 306.86355 545.54408 C 325.25937 553.00904 372.98186 533.0136 372.98186 533.0136 C 372.98186 533.0136 363.75705 540.33716 350.81322 546.43172 C 337.86938 552.52628 321.2065 557.39185 313.79532 555.67511 C 295.03212 551.32879 278.10621 532.0863 262.99554 517.29627 "
       id="path4415" />
    <path
       style="fill:none;stroke:#0000ff;stroke-width:0.5;stroke-linecap:butt;stroke-linejoin:miter;stroke-miterlimit:4;stroke-opacity:1;stroke-dasharray:1.5, 0.5;stroke-dashoffset:0"
       d="m 267.12449,515.71241 c 7.38194,7.59963 14.31593,14.70637 16.51247,16.98739 7.54816,7.83848 8.99973,11.61256 27.28953,17.41885 5.8174,1.8468 29.32173,-1.74189 32.22487,-2.90315 2.90315,-1.16125 4.79878,-1.78327 4.79878,-1.78327 0,0 11.06594,-4.89028 23.75844,-12.39681 12.02463,-7.11154 21.66865,-21.0837 28.2005,-22.94994"
       id="path4427"
       inkscape:connector-curvature="0"
       sodipodi:nodetypes="cssscsc" />
    <g
       id="g4479"
       transform="translate(15.548066,-140.59421)">
      <path
         sodipodi:nodetypes="csssssccsccssssscc"
         inkscape:connector-curvature="0"
         d="m 346.80194,646.82406 c 0,0 -6.75005,-3.41972 -14.79011,-7.79294 -5.23624,-2.84814 -23.69517,0.009 -29.30552,0.40083 -14.22482,0.99243 -25.43523,11.94637 -34.41948,21.58211 -27.37205,29.35691 -45.22635,36.6253 -58.22254,35.72747 -14.19484,-0.98064 -42.28705,-1.7485 -63.37964,11.80289 -9.46447,6.08065 -6.92665,0.36228 -16.78532,13.52237 -6.09659,-1.45157 -6.09659,-1.45157 -6.09659,-1.45157 0,0 -0.007,-58.88316 -0.006,-72.80929 0.002,-14.27297 0.006,-18.53663 0.006,-36.63916 13.17841,0.90301 43.7061,4.37848 44.33737,4.46516 0,0 -5.34957,8.21224 -10.16157,15.53279 -5.33152,8.11093 13.11917,7.30802 16.57552,11.91649 6.94701,9.26268 11.36111,33.1501 21.94702,39.10468 10.58592,5.95458 39.72758,4.58419 55.24526,-13.2324 10.13385,-11.63516 19.97136,-23.12653 32.0848,-29.27774 7.04729,-3.57862 2.27419,-3.90753 25.67852,-7.14618 13.43516,-1.67559 33.03011,2.8648 38.0181,13.96368"
         style="fill:#e6e6e6;stroke:#000000;stroke-width:0.2;stroke-linecap:butt;stroke-linejoin:miter;stroke-miterlimit:4;stroke-opacity:1;stroke-dasharray:none"
         id="path4469" />
    </g>
    <path
       id="path3894"
       style="fill:none;stroke:#ff0000;stroke-width:0.5;stroke-linecap:butt;stroke-linejoin:miter;stroke-miterlimit:4;stroke-opacity:1;stroke-dasharray:2, 0.5;stroke-dashoffset:0"
       d="m 400.14055,522.21594 c -4.35925,1.14794 -8.44644,1.66515 -11.96214,1.19984 -9.06461,-1.19972 -22.61862,-17.12558 -34.41593,-24.09066 -11.79732,-6.96509 -23.44197,-5.56636 -23.44197,-5.56636 0,0 -14.60236,-0.25139 -28.2729,6.8943 -10.33206,5.40065 -18.57832,16.18112 -20.67588,18.27867 -2.09755,2.09756 -14.38321,15.58182 -19.17762,18.87798 -4.79441,3.29615 -16.78042,11.08706 -24.87099,11.38671 -8.09056,0.29965 -18.87797,1.19861 -23.97203,-1.1986 -5.09406,-2.3972 -8.09056,-4.1951 -12.88497,-9.28916 -4.7944,-5.09406 -19.47727,-18.87798 -26.36923,-24.27168 -6.89196,-5.39371 -19.17763,-11.68637 -22.77343,-11.68637"
       inkscape:connector-curvature="0"
       sodipodi:nodetypes="csscsssssssc" />
    <path
       id="path4505"
       style="fill:#e6e6e6;stroke:#000000;stroke-width:0.1;stroke-linecap:butt;stroke-linejoin:miter;stroke-miterlimit:4;stroke-opacity:1;stroke-dasharray:none"
       d="m 262.99554,517.29627 c -9.77386,-9.56646 -18.78827,-17.27013 -27.04919,-17.87503 -20.12525,-1.47365 -51.01622,94.53485 -51.01622,94.53485 0,0 -35.61756,-11.28039 -39.48273,-12.48351 1.12634,-8.66733 4.56734,-23.89528 5.00517,-33.46253 1.29451,-28.28641 30.60012,-71.03537 33.23561,-72.97233 0,0 31.4629,11.58642 53.05798,13.98588 5.474,0.60823 19.97086,7.18338 31.59753,20.67286 0.70922,0.82285 1.41605,1.6476 2.12092,2.47245"
       inkscape:connector-curvature="0"
       sodipodi:nodetypes="csccscssc" />
    <text
       xml:space="preserve"
       style="font-size:14px;font-style:normal;font-weight:normal;text-align:center;line-height:125%;letter-spacing:0px;word-spacing:0px;text-anchor:middle;fill:#000000;fill-opacity:1;stroke:none;font-family:Bitstream Vera Sans"
       x="383.17911"
       y="481.59091"
       id="text5154"
       sodipodi:linespacing="125%"><tspan
         sodipodi:role="line"
         id="tspan5156"
         x="383.17911"
         y="481.59091">$t$</tspan></text>
    <text
       sodipodi:linespacing="125%"
       id="text5158"
       y="606.95251"
       x="119.10179"
       style="font-size:14px;font-style:normal;font-weight:normal;text-align:center;line-height:125%;letter-spacing:0px;word-spacing:0px;text-anchor:middle;fill:#000000;fill-opacity:1;stroke:none;font-family:Bitstream Vera Sans"
       xml:space="preserve"><tspan
         y="606.95251"
         x="119.10179"
         id="tspan5160"
         sodipodi:role="line">$t_{\textrm{back}}$</tspan></text>
    <path
       style="fill:none;stroke:#000000;stroke-width:0.5;stroke-linecap:butt;stroke-linejoin:miter;stroke-opacity:1;stroke-miterlimit:4;stroke-dasharray:none"
       d="m 335.65702,565.27293 11.19746,1.33303"
       id="path5164"
       inkscape:connector-curvature="0" />
    <text
       xml:space="preserve"
       style="font-size:14px;font-style:normal;font-weight:normal;text-align:center;line-height:125%;letter-spacing:0px;word-spacing:0px;text-anchor:middle;fill:#000000;fill-opacity:1;stroke:none;font-family:Bitstream Vera Sans"
       x="192.78778"
       y="612.78589"
       id="text3863"
       sodipodi:linespacing="125%"><tspan
         sodipodi:role="line"
         id="tspan3865"
         x="192.78778"
         y="612.78589">$x$</tspan></text>
    <text
       sodipodi:linespacing="125%"
       id="text3867"
       y="474.64706"
       x="115.77763"
       style="font-size:14px;font-style:normal;font-weight:normal;text-align:center;line-height:125%;letter-spacing:0px;word-spacing:0px;text-anchor:middle;fill:#000000;fill-opacity:1;stroke:none;font-family:Bitstream Vera Sans"
       xml:space="preserve"><tspan
         y="474.64706"
         x="115.77763"
         id="tspan3869"
         sodipodi:role="line">$y$</tspan></text>
    <text
       xml:space="preserve"
       style="font-size:14px;font-style:normal;font-weight:normal;text-align:center;line-height:125%;letter-spacing:0px;word-spacing:0px;text-anchor:middle;fill:#000000;fill-opacity:1;stroke:none;font-family:Bitstream Vera Sans"
       x="428.31302"
       y="567.23901"
       id="text3871"
       sodipodi:linespacing="125%"><tspan
         sodipodi:role="line"
         id="tspan3873"
         x="428.31302"
         y="567.23901">$t$</tspan></text>
    <path
       style="fill:none;stroke:#0000ff;stroke-width:0.5;stroke-linecap:butt;stroke-linejoin:miter;stroke-miterlimit:4;stroke-opacity:1;stroke-dasharray:1.5, 0.5;stroke-dashoffset:0"
       d="m 161.705,554.47336 c 0,0 26.12828,-25.83796 34.25707,-33.38613 8.1288,-7.54817 22.93482,-24.67671 31.93456,-25.83796 8.99974,-1.16126 17.99948,-0.29032 28.74111,9.58036 1.31594,1.20924 6.79474,7.01824 10.11335,10.4347"
       id="path4421"
       inkscape:connector-curvature="0"
       sodipodi:nodetypes="csssc" />
    <path
       style="fill:none;stroke:#000000;stroke-width:0.5;stroke-linecap:butt;stroke-linejoin:miter;stroke-miterlimit:4;stroke-opacity:1;stroke-dasharray:none;marker-end:url(#Arrow1Lend)"
       d="m 107.12594,595.11735 c 0,0 8.4191,-14.22539 7.54816,-4.64503 -0.87094,9.58037 9.29006,2.90314 14.51571,-2.61283"
       id="path5044"
       inkscape:connector-curvature="0"
       sodipodi:nodetypes="csc" />
    <path
       id="path3031"
       style="fill:none;stroke:#000000;stroke-width:0.20000000000000001;stroke-linecap:butt;stroke-linejoin:miter;stroke-opacity:1;stroke-miterlimit:4;stroke-dasharray:none;fill-opacity:1;opacity:1"
       d="m 184.93013,593.95609 -1.24195,-118.91837 c 0,0 -18.74464,25.80641 -29.19595,53.67657 -4.79858,12.79623 -8.46206,53.05391 -8.46206,53.05391 z"
       inkscape:connector-curvature="0"
       sodipodi:nodetypes="ccscc" />
    <path
       id="path3048"
       style="fill:none;stroke:#000000;stroke-width:0;stroke-linecap:butt;stroke-linejoin:miter;stroke-opacity:1;stroke-miterlimit:4;stroke-dasharray:none;fill-opacity:1;opacity:0"
       d="m 154.49223,528.71429 c 10.45131,-27.87016 29.19595,-53.67657 29.19595,-53.67657 l -44.33737,-4.46516 -1.5e-4,109.44845 6.67951,1.74719 c 0,0 3.66348,-40.25768 8.46206,-53.05391 z"
       inkscape:connector-curvature="0"
       sodipodi:nodetypes="sccccs" />
  </g>
</svg>
